<svg width="18" height="18" viewBox="0 0 18 18" fill="none" xmlns="http://www.w3.org/2000/svg">
<path fill-rule="evenodd" clip-rule="evenodd" d="M9.00002 16.0834C12.912 16.0834 16.0834 12.912 16.0834 9.00002C16.0834 5.088 12.912 1.91669 9.00002 1.91669C5.088 1.91669 1.91669 5.088 1.91669 9.00002C1.91669 12.912 5.088 16.0834 9.00002 16.0834ZM9.00002 17.3334C13.6024 17.3334 17.3334 13.6024 17.3334 9.00002C17.3334 4.39765 13.6024 0.666687 9.00002 0.666687C4.39765 0.666687 0.666687 4.39765 0.666687 9.00002C0.666687 13.6024 4.39765 17.3334 9.00002 17.3334Z" fill="#202020"/>
<path fill-rule="evenodd" clip-rule="evenodd" d="M9.00002 3.99791C9.3452 3.99791 9.62502 4.27773 9.62502 4.62291V9.51166L12.28 11.4081C12.5608 11.6088 12.6259 11.9991 12.4253 12.28C12.2246 12.5609 11.8343 12.6259 11.5534 12.4253L8.63674 10.3419C8.4725 10.2246 8.37502 10.0351 8.37502 9.83329V4.62291C8.37502 4.27773 8.65484 3.99791 9.00002 3.99791Z" fill="#202020"/>
</svg>
