<svg width="20" height="20" viewBox="0 0 20 20" fill="none" xmlns="http://www.w3.org/2000/svg">
<path d="M20 10.1683C20 11.2914 19.097 12.2019 17.9832 12.2019H16.9748C16.4178 12.2019 15.9664 11.7467 15.9664 11.1851V1.01683C15.9664 0.45525 16.4178 0 16.9748 0H17.9832C19.097 0 20 0.9105 20 2.03366V10.1683Z" fill="white"/>
<path d="M13.9495 0H3.80243C2.68858 0 1.78562 0.9105 1.78562 2.03366V2.94836C1.78562 3.43194 1.61472 3.8997 1.3036 4.2677L0.631485 5.06269C0.140589 5.64332 0.0133133 6.45218 0.301857 7.15752L0.486704 7.60937C0.673918 8.06702 0.689156 8.5778 0.529556 9.04597L0.108095 10.2823C-0.0683784 10.7999 -0.0274811 11.3678 0.221306 11.8543C0.5627 12.522 1.24527 12.9415 1.9902 12.9415H8.81297L7.74335 17.8222C7.54576 18.7237 8.06021 19.629 8.93151 19.913C9.69772 20.1627 10.5347 19.8615 10.9709 19.179L14.6363 13.4446C14.8463 13.1161 14.958 12.7336 14.958 12.3429V1.01683C14.958 0.45525 14.5065 0 13.9495 0Z" fill="white"/>
</svg>
