<svg xmlns="http://www.w3.org/2000/svg" width="20" height="20" viewBox="0 0 20 20" fill="none">
  <path d="M0 9.83171C0 8.70855 0.90296 7.79805 2.01682 7.79805H3.02523C3.58216 7.79805 4.03364 8.2533 4.03364 8.81488V18.9832C4.03364 19.5447 3.58216 20 3.02523 20H2.01682C0.90296 20 0 19.0895 0 17.9663V9.83171Z" fill="white"/>
  <path d="M6.05045 20H16.1976C17.3114 20 18.2144 19.0895 18.2144 17.9663V17.0516C18.2144 16.5681 18.3853 16.1003 18.6964 15.7323L19.3685 14.9373C19.8594 14.3567 19.9867 13.5478 19.6981 12.8425L19.5133 12.3906C19.3261 11.933 19.3108 11.4222 19.4704 10.954L19.8919 9.71773C20.0684 9.20007 20.0275 8.63218 19.7787 8.14566C19.4373 7.47803 18.7547 7.05854 18.0098 7.05854H11.187L12.2567 2.17783C12.4542 1.27626 11.9398 0.370966 11.0685 0.0869846C10.3023 -0.162748 9.46531 0.138472 9.02907 0.820963L5.36365 6.5554C5.1537 6.88386 5.04204 7.26636 5.04204 7.65714V18.9832C5.04204 19.5447 5.49352 20 6.05045 20Z" fill="white"/>
</svg>
