<svg xmlns="http://www.w3.org/2000/svg" width="32" height="32" viewBox="0 0 32 32" fill="none">
  <g filter="url(#filter0_b_1_205)">
    <rect width="32" height="32" rx="16" fill="white" fill-opacity="0.4"/>
    <path fill-rule="evenodd" clip-rule="evenodd" d="M17.7152 8.94953L12.8625 15.4542C12.5908 15.8185 12.5073 15.9349 12.4489 16.0559C12.3917 16.1745 12.3501 16.2996 12.3249 16.4281C12.2994 16.5589 12.2966 16.7006 12.2966 17.1527V20.1758C12.2966 20.802 12.2972 21.2325 12.3249 21.5663C12.3519 21.8923 12.4016 22.0689 12.4682 22.1976C12.6194 22.4898 12.8616 22.7292 13.1618 22.8798C13.296 22.9471 13.479 22.9965 13.8123 23.0234C14.1528 23.0508 14.5915 23.0512 15.2269 23.0512H19.7935C20.38 23.0512 20.7834 23.0508 21.0981 23.0265C21.4052 23.0027 21.577 22.9589 21.7062 22.8983C21.993 22.7638 22.2309 22.5489 22.3907 22.2825C22.4618 22.164 22.5205 22.0026 22.5715 21.7056C22.6239 21.4004 22.6601 21.0061 22.7123 20.4306L22.9464 17.8481C23.0076 17.1728 23.0493 16.7067 23.0511 16.3445C23.0528 15.9893 23.0141 15.7977 22.9531 15.659C22.8132 15.3411 22.5683 15.0764 22.2553 14.9089C22.1167 14.8347 21.9222 14.7792 21.5605 14.7491C21.1924 14.7184 20.7157 14.7179 20.0277 14.7179H19.7914C19.4374 14.7179 19.1504 14.4309 19.1504 14.0769V10.4028C19.1504 9.62556 18.5211 8.97621 17.7152 8.94953ZM11.0146 20.2031C11.0146 20.2223 11.0146 20.2415 11.0146 20.2605V22.0439C11.0146 22.5909 10.5615 23.0512 9.98157 23.0512C9.40167 23.0512 8.94856 22.5909 8.94856 22.0439V16.5494C8.94856 16.0024 9.40167 15.5421 9.98157 15.5421C10.5615 15.5421 11.0146 16.0024 11.0146 16.5494V16.9941C11.0146 17.0278 11.0146 17.0623 11.0146 17.0977C11.0146 17.1158 11.0146 17.1341 11.0146 17.1527L11.0146 20.2031ZM11.6392 14.9512C11.2173 14.5239 10.6284 14.26 9.98157 14.26C8.71238 14.26 7.6665 15.2757 7.6665 16.5494V22.0439C7.6665 23.3176 8.71238 24.3333 9.98157 24.3333C10.7195 24.3333 11.3819 23.99 11.8071 23.4523C12.0311 23.6846 12.2945 23.879 12.5869 24.0257C12.9302 24.1979 13.2984 24.2682 13.7095 24.3013C14.1075 24.3333 14.5978 24.3333 15.2002 24.3333H19.8188C20.3738 24.3333 20.827 24.3333 21.197 24.3047C21.5802 24.275 21.9244 24.212 22.2506 24.059C22.766 23.8173 23.198 23.4289 23.4901 22.942C23.6756 22.6329 23.7707 22.2977 23.8351 21.9225C23.8971 21.561 23.9375 21.1156 23.9868 20.5721L24.2258 17.9354C24.2838 17.2954 24.3311 16.7744 24.3331 16.3506C24.3352 15.9134 24.2911 15.5166 24.1265 15.1426C23.8699 14.5596 23.4235 14.08 22.8604 13.7786C22.5004 13.5859 22.107 13.5081 21.6668 13.4714C21.3246 13.4429 20.9167 13.4373 20.4324 13.4361V10.4028C20.4324 8.88236 19.1834 7.66663 17.6636 7.66663C17.2943 7.66663 16.9437 7.8396 16.721 8.13805L11.8349 14.6876C11.8238 14.7025 11.8128 14.7172 11.802 14.7317C11.7437 14.8098 11.6895 14.8823 11.6392 14.9512Z" fill="white"/>
  </g>
  <defs>
    <filter id="filter0_b_1_205" x="-4" y="-4" width="40" height="40" filterUnits="userSpaceOnUse" color-interpolation-filters="sRGB">
      <feFlood flood-opacity="0" result="BackgroundImageFix"/>
      <feGaussianBlur in="BackgroundImageFix" stdDeviation="2"/>
      <feComposite in2="SourceAlpha" operator="in" result="effect1_backgroundBlur_1_205"/>
      <feBlend mode="normal" in="SourceGraphic" in2="effect1_backgroundBlur_1_205" result="shape"/>
    </filter>
  </defs>
</svg>