<svg xmlns="http://www.w3.org/2000/svg" width="32" height="32" viewBox="0 0 32 32" fill="none">
  <g filter="url(#filter0_b_1_217)">
    <rect width="32" height="32" rx="16" fill="white" fill-opacity="0.4"/>
    <path d="M16 24.75C11.1675 24.75 7.25 20.8325 7.25 16C7.25 11.1675 11.1675 7.25 16 7.25C20.8325 7.25 24.75 11.1675 24.75 16C24.75 20.8325 20.8325 24.75 16 24.75ZM16 26C21.5228 26 26 21.5228 26 16C26 10.4772 21.5228 6 16 6C10.4772 6 6 10.4772 6 16C6 21.5228 10.4772 26 16 26Z" fill="white"/>
    <path d="M14.7519 19.75C14.7519 19.0596 15.3116 18.5 16.0019 18.5C16.6923 18.5 17.2519 19.0596 17.2519 19.75C17.2519 20.4404 16.6923 21 16.0019 21C15.3116 21 14.7519 20.4404 14.7519 19.75Z" fill="white"/>
    <path d="M14.8744 12.2438C14.8078 11.5779 15.3307 11 16 11C16.6693 11 17.1922 11.5779 17.1256 12.2438L16.6872 16.6281C16.6519 16.9811 16.3548 17.25 16 17.25C15.6452 17.25 15.3481 16.9811 15.3128 16.6281L14.8744 12.2438Z" fill="white"/>
  </g>
  <defs>
    <filter id="filter0_b_1_217" x="-4" y="-4" width="40" height="40" filterUnits="userSpaceOnUse" color-interpolation-filters="sRGB">
      <feFlood flood-opacity="0" result="BackgroundImageFix"/>
      <feGaussianBlur in="BackgroundImageFix" stdDeviation="2"/>
      <feComposite in2="SourceAlpha" operator="in" result="effect1_backgroundBlur_1_217"/>
      <feBlend mode="normal" in="SourceGraphic" in2="effect1_backgroundBlur_1_217" result="shape"/>
    </filter>
  </defs>
</svg>