<svg width="22" height="22" viewBox="0 0 22 22" fill="none" xmlns="http://www.w3.org/2000/svg">
<path fill-rule="evenodd" clip-rule="evenodd" d="M11 22C17.0751 22 22 17.0751 22 11C22 4.92487 17.0751 0 11 0C4.92487 0 0 4.92487 0 11C0 17.0751 4.92487 22 11 22ZM11.3729 5C10.6367 5 10.0614 5.63564 10.1347 6.36818L10.617 11.1909C10.6558 11.5793 10.9826 11.875 11.3729 11.875C11.7632 11.875 12.09 11.5793 12.1288 11.1909L12.6111 6.36818C12.6843 5.63564 12.1091 5 11.3729 5ZM11.375 13.25C10.6156 13.25 10 13.8656 10 14.625C10 15.3844 10.6156 16 11.375 16C12.1344 16 12.75 15.3844 12.75 14.625C12.75 13.8656 12.1344 13.25 11.375 13.25Z" fill="white"/>
</svg>
