<svg xmlns="http://www.w3.org/2000/svg" width="32" height="32" viewBox="0 0 32 32" fill="none">
  <g filter="url(#filter0_b_1_213)">
    <rect width="32" height="32" rx="16" fill="white" fill-opacity="0.4"/>
    <path d="M20.2598 8H12.566C11.8602 8.03168 11.1953 8.34013 10.7152 8.85855C10.2352 9.37697 9.97875 10.0636 10.0014 10.7698V24.0288C10.0014 24.1401 10.0304 24.2495 10.0855 24.3461C10.1405 24.4428 10.2198 24.5235 10.3155 24.5802C10.413 24.6365 10.5236 24.6661 10.6361 24.6661C10.7487 24.6661 10.8592 24.6365 10.9567 24.5802L16.4129 21.554L21.8691 24.5867C21.965 24.641 22.0732 24.6697 22.1833 24.67C22.2984 24.67 22.4113 24.639 22.5103 24.5802C22.606 24.5235 22.6853 24.4428 22.7404 24.3461C22.7955 24.2495 22.8244 24.1401 22.8245 24.0288V10.7698C22.8471 10.0636 22.5906 9.37697 22.1106 8.85855C21.6306 8.34013 20.9657 8.03168 20.2598 8ZM21.5421 22.9389L16.7271 20.2653C16.6296 20.209 16.5191 20.1794 16.4065 20.1794C16.294 20.1794 16.1834 20.209 16.0859 20.2653L11.2837 22.9389V10.757C11.2657 10.3931 11.3891 10.0365 11.6281 9.7616C11.8671 9.48673 12.2032 9.31498 12.566 9.28231H20.2598C20.625 9.31501 20.963 9.48857 21.2024 9.76623C21.4417 10.0439 21.5636 10.4038 21.5421 10.7698V22.9389Z" fill="white"/>
  </g>
  <defs>
    <filter id="filter0_b_1_213" x="-4" y="-4" width="40" height="40" filterUnits="userSpaceOnUse" color-interpolation-filters="sRGB">
      <feFlood flood-opacity="0" result="BackgroundImageFix"/>
      <feGaussianBlur in="BackgroundImageFix" stdDeviation="2"/>
      <feComposite in2="SourceAlpha" operator="in" result="effect1_backgroundBlur_1_213"/>
      <feBlend mode="normal" in="SourceGraphic" in2="effect1_backgroundBlur_1_213" result="shape"/>
    </filter>
  </defs>
</svg>