<svg width="16" height="20" viewBox="0 0 16 20" fill="none" xmlns="http://www.w3.org/2000/svg">
<path d="M12.799 0H3.20103C2.32054 0.0380031 1.49106 0.408071 0.892244 1.03005C0.293429 1.65203 -0.0265105 2.47585 0.00172158 3.32308V19.2308C0.00174579 19.3643 0.0378925 19.4955 0.106608 19.6114C0.175323 19.7274 0.274241 19.8242 0.393637 19.8923C0.515226 19.9598 0.653152 19.9954 0.793551 19.9954C0.93395 19.9954 1.07188 19.9598 1.19346 19.8923L8 16.2615L14.8065 19.9C14.9261 19.9652 15.061 19.9996 15.1985 20C15.342 20 15.4829 19.9628 15.6064 19.8923C15.7258 19.8242 15.8247 19.7274 15.8934 19.6114C15.9621 19.4955 15.9983 19.3643 15.9983 19.2308V3.32308C16.0265 2.47585 15.7066 1.65203 15.1078 1.03005C14.5089 0.408071 13.6795 0.0380031 12.799 0Z" fill="white"/>
</svg>
