<svg xmlns="http://www.w3.org/2000/svg" width="20" height="20" viewBox="0 2 20 20" fill="none">
  <path d="M4.375 5.7142C4.375 5.9772 4.58487 6.1904 4.84375 6.1904H15.1562C15.4151 6.1904 15.625 5.9772 15.625 5.7142C15.625 5.45121 15.4151 5.23801 15.1562 5.23801H4.84375C4.58487 5.23801 4.375 5.45121 4.375 5.7142Z" fill="white"/>
  <path d="M6.25 3.80944C6.25 4.07244 6.45987 4.28563 6.71875 4.28563H13.2812C13.5401 4.28563 13.75 4.07244 13.75 3.80944C13.75 3.54645 13.5401 3.33325 13.2812 3.33325H6.71875C6.45987 3.33325 6.25 3.54645 6.25 3.80944Z" fill="white"/>
  <path d="M8.84219 9.11992C8.69769 9.02817 8.51556 9.02332 8.36651 9.10723C8.21747 9.19115 8.125 9.35062 8.125 9.52373V14.2856C8.125 14.4587 8.21747 14.6182 8.36651 14.7021C8.51556 14.786 8.69769 14.7812 8.84219 14.6894L12.5922 12.3085C12.7292 12.2215 12.8125 12.0689 12.8125 11.9047C12.8125 11.7405 12.7292 11.5879 12.5922 11.5009L8.84219 9.11992Z" fill="white"/>
  <path d="M3.90625 16.6666C3.1296 16.6666 2.5 16.027 2.5 15.238V8.57135C2.5 7.78237 3.1296 7.14278 3.90625 7.14278H16.0938C16.8704 7.14278 17.5 7.78237 17.5 8.57135V15.238C17.5 16.027 16.8704 16.6666 16.0938 16.6666H3.90625ZM16.0938 15.7142C16.3526 15.7142 16.5625 15.501 16.5625 15.238V8.57135C16.5625 8.30836 16.3526 8.09516 16.0938 8.09516H3.90625C3.64737 8.09516 3.4375 8.30836 3.4375 8.57135V15.238C3.4375 15.501 3.64737 15.7142 3.90625 15.7142H16.0938Z" fill="white"/>
</svg>