<svg xmlns="http://www.w3.org/2000/svg" width="20" height="20" viewBox="0 0 20 20" fill="none">
  <path d="M18.3318 10.0039C18.331 14.6058 14.5997 18.3357 9.99783 18.3349C5.39592 18.334 1.66603 14.6028 1.66687 10.0009C1.66772 5.39894 5.39898 1.66905 10.0009 1.66989C14.6028 1.67074 18.3327 5.402 18.3318 10.0039Z" fill="#58D7A2"/>
  <path d="M4.16671 10C4.16671 10.3452 4.44654 10.625 4.79171 10.625H9.16671V15C9.16671 15.3452 9.44653 15.625 9.79171 15.625C10.1369 15.625 10.4167 15.3452 10.4167 15V10.625H14.7917C15.1369 10.625 15.4167 10.3452 15.4167 10C15.4167 9.65485 15.1369 9.37501 14.7917 9.37501H10.4167V5.00001C10.4167 4.65485 10.1369 4.37501 9.79171 4.37501C9.44653 4.37501 9.16671 4.65485 9.16671 5.00001V9.37501H4.79171C4.44654 9.37501 4.16671 9.65485 4.16671 10Z" fill="white"/>
</svg>